<?xml version="1.0" standalone="no"?><!DOCTYPE svg PUBLIC "-//W3C//DTD SVG 1.1//EN" "http://www.w3.org/Graphics/SVG/1.1/DTD/svg11.dtd"><svg t="1744355811774" class="icon" viewBox="0 0 1024 1024" version="1.1" xmlns="http://www.w3.org/2000/svg" p-id="8814" xmlns:xlink="http://www.w3.org/1999/xlink" width="200" height="200"><path d="M191.876 216.486l56.787-124.334 79.021 111.61z" fill="" p-id="8815"></path><path d="M493.266 65.5c60.43 0 119.069 11.805 174.289 35.087 53.326 22.484 101.215 54.668 142.332 95.656 41.125 40.995 73.417 88.743 95.979 141.918 23.368 55.075 35.218 113.563 35.218 173.839s-11.85 118.763-35.218 173.838c-22.563 53.175-54.854 100.923-95.979 141.918-41.117 40.988-89.006 73.172-142.332 95.655-55.22 23.283-113.859 35.088-174.289 35.088-49.981 0-99.076-8.158-145.921-24.249-45.291-15.557-87.629-38.212-125.836-67.337-37.793-28.809-70.61-63.225-97.541-102.291-27.344-39.667-47.936-83.157-61.202-129.264-4.582-15.922 4.611-32.544 20.534-37.125 15.922-4.58 32.545 4.611 37.126 20.533C167.819 783.471 321.137 898.5 493.266 898.5c213.844 0 387.818-173.383 387.818-386.5S707.109 125.5 493.266 125.5c-66.554 0-132.192 17.074-189.82 49.376-14.454 8.104-32.737 2.953-40.838-11.5-8.102-14.453-2.952-32.737 11.5-40.838C340.678 85.224 416.462 65.5 493.266 65.5z" p-id="8816"></path><path d="M489.011 545.689c0 15.717-12.741 28.457-28.458 28.457-15.717 0-28.458-12.74-28.458-28.457V319.141c0-15.717 12.741-28.458 28.458-28.458 15.717 0 28.458 12.741 28.458 28.458v226.548z" fill="" p-id="8817"></path><path d="M686.322 517.229c15.717 0 28.457 12.742 28.457 28.459 0 15.717-12.74 28.459-28.457 28.459H459.774c-15.717 0-28.458-12.742-28.458-28.459 0-15.717 12.741-28.459 28.458-28.459h226.548z" fill="" p-id="8818"></path></svg>